<?xml version="1.0" encoding="utf-8"?>
<svg version="1.0" width="2438pt" height="943pt" viewBox="0 0 2438 943" xmlns="http://www.w3.org/2000/svg" xmlns:bx="https://boxy-svg.com">
  <g transform="matrix(0.10968, 0, 0, -0.10968, -132.51199, 1157.77051)" fill="#000000" stroke="rgb(0, 0, 0)" stroke-width="320px" stroke-linejoin="round" bx:origin="-0.013483 1.03413">
    <g>
      <path d="M  1500 10250 v -2910 h 90 v 1350 h 1410 v 90 h -1410 v 1400 h 1610 v 80 h -1690 Z"/>
      <path d="M  3925.5 10250 v -2910 h 90 v 2910 h -90 Z"/>
      <path d="M  4741 10250 v -2910 h 90 v 2810 l 2048 -2810 h 120 v 2910 h -90 v -2810 l -2048 2810 h -120 Z"/>
      <path d="M  9064.5 10250 l -1340 -2910 h 100 l 1290 2810 l 1290 -2810 h 100 l -1340 2910 h -100 Z"/>
      <path d="M 11230 10250 v -2910 h 90 v 2810 l 2048 -2810 h 120 v 2910 h -90 v -2810 l -2048 2810 h -120 Z"/>
      <path d="M15473.5 10250 c-335 -57 -596 -191 -830 -425 -240 -238 -377 -514 -419 -839 -86 -665 340 -1329 992 -1546 387 -129 778 -107 1142 64 89 42 254 146 315 199 l35 31 -26 26 -27 27 -70 -54 c-493 -375 -1161 -396 -1677 -53 -383 254 -614 681 -615 1133 -1 586 386 1112 960 1302 220 73 509 93 729 50 227 -45 461 -152 629 -288 l43 -35 27 26 27 27 -30 25 c-198 163 -456 282 -710 325 -137 23 -374 26 -495 5Z"/>
      <path d="M 17434 10250 v -2910 h 90 v 2910 h -90 Z"/>
      <path d="M 19589.5 10250 l -1340 -2910 h 100 l 1290 2810 l 1290 -2810 h 100 l -1340 2910 h -100 Z"/>
      <path d="M 21755 8795 l0 -1455 695 0 695 0 0 40 0 40 -650 0 -650 0 0 1415 0 1415 -45 0 -45 0 0 -1455Z"/>
    </g>
    <g>
      <path d="M 1500 5160 v -2910 h 90 v 2810 l 1290 -2480 l 1290 2480 v -2810 h 90 v 2910 h -140 l -1240 -2380 l -1240 2380 Z"/>
      <path d="M 6405 5160 l -1340 -2910 h 100 l 1290 2810 l 1290 -2810 h 100 l -1340 2910 h -100 Z"/>
      <path d="M 9455 5145 c-335 -57 -596 -191 -830 -425 -240 -238 -377 -514 -419 -839 -86 -665 340 -1329 992 -1546 387 -129 778 -107 1142 64 89 42 254 146 315 199 l35 31 -26 26 -27 27 -70 -54 c-493 -375 -1161 -396 -1677 -53 -383 254 -614 681 -615 1133 -1 586 386 1112 960 1302 220 73 509 93 729 50 227 -45 461 -152 629 -288 l43 -35 27 26 27 27 -30 25 c-198 163 -456 282 -710 325 -137 23 -374 26 -495 5Z"/>
      <path d="M 11590 5160 v -2910 h 90 v 1430 h 2090 v -1430 h 90 v 2910 h -90 v -1400 h -2090 v 1400 h -90 Z"/>
      <path d="M 14665 5160 v -2910 h 90 v 2910 h -90 Z"/>
      <path d="M 15560 5160 v -2910 h 90 v 2810 l 2048 -2810 h 120 v 2910 h -90 v -2810 l -2048 2810 h -120 Z"/>
      <rect x="18623" y="5080" width="1740" height="80"/>
      <rect x="18623" y="2250" width="1740" height="80"/>
      <rect x="18623" y="3665" width="1740" height="80"/>
      <path d="M22047 5154 c-248 -37 -418 -109 -550 -235 -117 -112 -175 -245 -175 -407 0 -247 121 -459 336 -583 134 -78 238 -118 653 -249 323 -102 487 -185 597 -302 102 -108 143 -210 151 -373 9 -186 -33 -301 -157 -425 -141 -142 -340 -219 -619 -240 -366 -28 -727 87 -994 315 l-68 58 -27 -26 -26 -27 39 -40 c97 -100 331 -235 506 -294 464 -154 1024 -60 1273 215 111 123 159 254 158 434 -2 288 -126 485 -392 624 -116 61 -233 105 -495 187 -386 121 -525 181 -640 277 -127 106 -185 211 -205 371 -30 242 76 425 315 541 319 155 815 136 1177 -46 43 -22 80 -39 83 -39 2 0 12 14 21 31 13 26 14 33 2 41 -35 25 -202 99 -276 123 -167 54 -253 67 -462 70 -107 2 -208 1 -225 -1Z"/>
    </g>
  </g>
</svg>